<svg xmlns="http://www.w3.org/2000/svg" width="112" height="38.888" viewBox="0 0 112 38.888"><g transform="translate(-72.09 -161.8)"><path d="M279.526,162.1a15.109,15.109,0,0,1,9.462,3.266l-3.152,4.034a9.8,9.8,0,0,0-6.154-2.276c-4.345,0-7.879,3.413-7.879,9.051,0,6,3.432,9.566,7.879,9.566a9.206,9.206,0,0,0,6.412-2.534l3.306,3.667a13.647,13.647,0,0,1-9.874,3.832c-7.86,0-13.826-5.432-13.826-14.531,0-8.69,6.018-14.067,13.826-14.067" transform="translate(-160.149 -0.247)" fill="#231f20"/><path d="M421.192,183.583a14.771,14.771,0,0,0,7.7,2.357c2.9,0,4.967-.983,4.967-3.311,0-5.48-15.411-2.065-15.411-12.255,0-5.325,4.7-8.273,10.4-8.273a24.955,24.955,0,0,1,10.085,2.42l-2.765,4.243a17.084,17.084,0,0,0-7.271-1.9c-2.584,0-4.494,1.037-4.494,3.258,0,5.38,15.309,1.759,15.309,12.205,0,5.482-4.494,8.379-10.757,8.379a19.068,19.068,0,0,1-11.187-3.348Z" transform="translate(-285.928 -0.248)" fill="#231f20"/><path d="M562.992,187.655a4.45,4.45,0,0,1-1.759-3.567,5.022,5.022,0,0,1,2.843-4.4,9.316,9.316,0,0,1-3.975-7.808c0-6.049,5.067-10.033,11.58-10.033a12.677,12.677,0,0,1,7.6,2.378,10.7,10.7,0,0,1,7.447-2.43v4.447a16.549,16.549,0,0,0-5.069.518,9.872,9.872,0,0,1,1.448,5.121c0,6.462-5.636,10.085-11.427,10.085a14.1,14.1,0,0,1-4.449-.724,2.03,2.03,0,0,0-1.293,1.81c0,1.555,1.913,2.074,8.171,2.378,7.5.413,11.9,2.378,11.9,7.445,0,4.813-4.4,7.808-13.6,7.808-8.641,0-13.546-2.532-13.546-7.29,0-2.484,1.652-4.447,4.136-5.741m4.24,1.915a3.959,3.959,0,0,0-2.636,3.567c0,2.33,2.274,3.413,7.551,3.413,5.377,0,8.17-1.037,8.17-3.1,0-2.224-1.913-2.9-7.292-3.154a29.134,29.134,0,0,1-5.793-.724m10.142-17.687a5.715,5.715,0,1,0-5.688,5.79,5.484,5.484,0,0,0,5.688-5.79" transform="translate(-402.642)" fill="#231f20"/><path d="M187.407,285.015a.864.864,0,0,1-.864.864h-5.479a.864.864,0,0,1-.864-.864v-5.541a.864.864,0,0,1,.864-.864h5.48a.864.864,0,0,1,.864.864Z" transform="translate(-89.425 -96.622)" fill="#231f20"/><path d="M133.355,230.965a.864.864,0,0,1-.864.864h-5.477a.864.864,0,0,1-.864-.864v-5.541a.864.864,0,0,1,.864-.864h5.48a.864.864,0,0,1,.864.864Z" transform="translate(-44.717 -51.913)" fill="#231f20"/><path d="M187.407,230.965a.864.864,0,0,1-.864.864h-5.479a.864.864,0,0,1-.864-.864v-5.541a.864.864,0,0,1,.864-.864h5.48a.864.864,0,0,1,.864.864Z" transform="translate(-89.425 -51.913)" fill="#231f20"/><path d="M79.3,176.915a.864.864,0,0,1-.864.864H72.954a.864.864,0,0,1-.864-.864v-5.541a.864.864,0,0,1,.864-.864h5.48a.864.864,0,0,1,.864.864Z" transform="translate(0 -7.205)" fill="#231f20"/><path d="M133.355,176.915a.864.864,0,0,1-.864.864h-5.477a.864.864,0,0,1-.864-.864v-5.541a.864.864,0,0,1,.864-.864h5.48a.864.864,0,0,1,.864.864Z" transform="translate(-44.717 -7.205)" fill="#231f20"/><path d="M187.407,176.915a.864.864,0,0,1-.864.864h-5.479a.864.864,0,0,1-.864-.864v-5.541a.864.864,0,0,1,.864-.864h5.48a.864.864,0,0,1,.864.864Z" transform="translate(-89.425 -7.205)" fill="#231f20"/></g></svg>